<svg width="101" height="100" viewBox="0 0 101 100" fill="none" xmlns="http://www.w3.org/2000/svg">
<rect width="100" height="100" transform="translate(0.5)" fill="white"/>
<path d="M94.6 66.9231C94.6008 60.3413 93.1284 53.8428 90.2907 47.9041C87.4531 41.9655 83.3221 36.7374 78.2009 32.6031C73.0796 28.4688 67.0979 25.5334 60.6945 24.0118C54.291 22.4904 47.6281 22.4215 41.1945 23.8104C34.761 25.1991 28.7198 28.0103 23.5142 32.0379C18.3086 36.0654 14.0705 41.207 11.1107 47.0857C8.15091 52.9644 6.54443 59.431 6.4092 66.0114C6.27407 72.5917 7.61344 79.1189 10.3293 85.1143H90.6707C93.2647 79.4008 94.6045 73.1978 94.6 66.9231Z" fill="#FFE8EC"/>
<path d="M7.50244 85.1143H93.4974" stroke="#FF006F" stroke-width="0.24" stroke-linecap="round" stroke-linejoin="round"/>
<path d="M2.54102 85.1143H5.29727" stroke="#FF006F" stroke-width="0.24" stroke-linecap="round" stroke-linejoin="round"/>
<path d="M95.7026 85.1143H98.4589" stroke="#FF006F" stroke-width="0.24" stroke-linecap="round" stroke-linejoin="round"/>
<path d="M19.9839 93.6694H22.1888" stroke="#FF006F" stroke-width="0.24" stroke-miterlimit="10" stroke-linecap="round"/>
<path d="M29.3794 93.6694H73.7186" stroke="#FF006F" stroke-width="0.24" stroke-miterlimit="10" stroke-linecap="round" stroke-dasharray="4.35 6.52"/>
<path d="M77.314 93.6694H79.5189" stroke="#FF006F" stroke-width="0.24" stroke-miterlimit="10" stroke-linecap="round"/>
<path d="M76.6071 41.1245H17.3511V82.9071H76.6071V41.1245Z" fill="white"/>
<path d="M76.6071 41.1245H17.3511V82.9071H76.6071V41.1245Z" stroke="#FF006F" stroke-width="0.24" stroke-linecap="round" stroke-linejoin="round"/>
<path d="M75.8474 41.1243H18.1106C17.7086 41.1243 17.3229 40.9649 17.0383 40.6812C16.7535 40.3975 16.5928 40.0125 16.5913 39.6105C16.5913 39.2075 16.7514 38.8211 17.0363 38.5362C17.3211 38.2514 17.7076 38.0913 18.1106 38.0913H75.8474C76.2503 38.0913 76.6368 38.2514 76.9216 38.5362C77.2065 38.8211 77.3666 39.2075 77.3666 39.6105C77.3652 40.0125 77.2045 40.3975 76.9196 40.6812C76.6349 40.9649 76.2493 41.1243 75.8474 41.1243Z" fill="white" stroke="#FF006F" stroke-width="0.24" stroke-linecap="round" stroke-linejoin="round"/>
<path d="M72.0481 24.4116H21.9087V38.086H72.0481V24.4116Z" fill="white"/>
<path d="M72.0481 24.4116H21.9087V38.086H72.0481V24.4116Z" stroke="#FF006F" stroke-width="0.24" stroke-linecap="round" stroke-linejoin="round"/>
<path d="M62.1723 30.6574C62.1728 30.3907 62.0854 30.1312 61.9235 29.9191C61.7618 29.707 61.5345 29.5542 61.2771 29.4843L60.4127 29.2495C56.0345 28.0554 51.5167 27.4503 46.9787 27.4502C42.4412 27.4496 37.9237 28.054 33.5459 29.2473L32.6804 29.4822C32.423 29.5521 32.1956 29.7048 32.0337 29.9169C31.872 30.1289 31.7847 30.3885 31.7852 30.6552V38.0839H62.1723V30.6574Z" fill="white"/>
<path d="M62.1723 30.6574C62.1728 30.3907 62.0854 30.1312 61.9235 29.9191C61.7618 29.707 61.5345 29.5542 61.2771 29.4843L60.4127 29.2495C56.0345 28.0554 51.5167 27.4503 46.9787 27.4502C42.4412 27.4496 37.9237 28.054 33.5459 29.2473L32.6804 29.4822C32.423 29.5521 32.1956 29.7048 32.0337 29.9169C31.872 30.1289 31.7847 30.3885 31.7852 30.6552V38.0839H62.1723V30.6574Z" stroke="#FF006F" stroke-width="0.24" stroke-linecap="round" stroke-linejoin="round"/>
<path d="M71.2889 21.3721H22.6687C22.2656 21.3721 21.8792 21.532 21.5943 21.817C21.3095 22.1019 21.1494 22.4883 21.1494 22.8912C21.1493 23.0908 21.1884 23.2885 21.2647 23.473C21.341 23.6574 21.4529 23.825 21.5939 23.9662C21.7351 24.1074 21.9026 24.2194 22.0869 24.2958C22.2714 24.3723 22.469 24.4116 22.6687 24.4116H71.2889C71.4884 24.4116 71.6861 24.3723 71.8706 24.2958C72.0549 24.2194 72.2225 24.1074 72.3635 23.9662C72.5046 23.825 72.6166 23.6574 72.6928 23.473C72.7691 23.2885 72.8082 23.0908 72.8081 22.8912C72.8081 22.4883 72.648 22.1019 72.3632 21.817C72.0783 21.532 71.6919 21.3721 71.2889 21.3721Z" fill="white" stroke="#FF006F" stroke-width="0.24" stroke-linecap="round" stroke-linejoin="round"/>
<path d="M56.8549 82.9069H37.1025V35.3891C37.1025 35.0967 37.2187 34.8163 37.4255 34.6096C37.6322 34.4027 37.9127 34.2866 38.205 34.2866H55.7525C56.0448 34.2866 56.3253 34.4027 56.532 34.6096C56.7387 34.8163 56.8549 35.0967 56.8549 35.3891V82.9069Z" fill="white"/>
<path d="M56.8549 82.9069H37.1025V35.3891C37.1025 35.0967 37.2187 34.8163 37.4255 34.6096C37.6322 34.4027 37.9127 34.2866 38.205 34.2866H55.7525C56.0448 34.2866 56.3253 34.4027 56.532 34.6096C56.7387 34.8163 56.8549 35.0967 56.8549 35.3891V82.9069Z" stroke="#FF006F" stroke-width="0.24" stroke-linecap="round" stroke-linejoin="round"/>
<path d="M59.1339 82.907H34.8237V68.0552C34.8237 67.7628 34.9399 67.4823 35.1467 67.2756C35.3534 67.0688 35.6338 66.9526 35.9262 66.9526H58.0313C58.3238 66.9526 58.6041 67.0688 58.8109 67.2756C59.0176 67.4823 59.1339 67.7628 59.1339 68.0552V82.907Z" fill="#FF006F"/>
<path d="M59.1339 82.907H34.8237V68.0552C34.8237 67.7628 34.9399 67.4823 35.1467 67.2756C35.3534 67.0688 35.6338 66.9526 35.9262 66.9526H58.0313C58.3238 66.9526 58.6041 67.0688 58.8109 67.2756C59.0176 67.4823 59.1339 67.7628 59.1339 68.0552V82.907Z" stroke="#FF006F" stroke-width="0.24" stroke-linecap="round" stroke-linejoin="round"/>
<path d="M46.9786 30.4883C45.8573 30.4884 44.7615 30.8246 43.8329 31.4534C42.9044 32.0823 42.1857 32.975 41.7694 34.0163L41.6592 34.2875V66.9524H52.2971V34.2864L52.1869 34.0152C51.7705 32.9742 51.0518 32.0819 50.1235 31.4533C49.1952 30.8247 48.0997 30.4885 46.9786 30.4883Z" fill="#FF006F"/>
<path d="M52.2972 43.9602V34.2869L52.1871 34.0156C51.7705 32.9745 51.0517 32.0821 50.1231 31.4535C49.1946 30.8249 48.099 30.4888 46.9777 30.4888C45.8564 30.4888 44.7608 30.8249 43.8322 31.4535C42.9037 32.0822 42.1848 32.9745 41.7684 34.0156L41.6582 34.2869V54.5961L52.2972 43.9602Z" fill="white"/>
<path d="M46.9786 30.4883C45.8573 30.4884 44.7615 30.8246 43.8329 31.4534C42.9044 32.0823 42.1857 32.975 41.7694 34.0163L41.6592 34.2875V66.9524H52.2971V34.2864L52.1869 34.0152C51.7705 32.9742 51.0518 32.0819 50.1235 31.4533C49.1952 30.8247 48.0997 30.4885 46.9786 30.4883Z" stroke="#FF006F" stroke-width="0.24" stroke-linecap="round" stroke-linejoin="round"/>
<path d="M37.1026 38.086H18.8706V36.1489C18.8706 35.8565 18.9867 35.5761 19.1935 35.3693C19.4003 35.1626 19.6807 35.0464 19.9731 35.0464H37.1026V38.086Z" fill="#FF006F" stroke="#FF006F" stroke-width="0.24" stroke-linecap="round" stroke-linejoin="round"/>
<path d="M75.0859 38.086H56.855V35.0464H73.9835C74.2758 35.0464 74.5563 35.1626 74.763 35.3693C74.9697 35.5761 75.0859 35.8565 75.0859 36.1489V38.086Z" fill="#FF006F" stroke="#FF006F" stroke-width="0.24" stroke-linecap="round" stroke-linejoin="round"/>
<path d="M49.2574 69.9922H44.6997V74.5499H49.2574V69.9922Z" fill="#FF006F"/>
<path d="M44.6997 74.551L49.2574 69.9922H44.6997V74.551Z" fill="white"/>
<path d="M49.2574 69.9922H44.6997V74.5499H49.2574V69.9922Z" stroke="#FF006F" stroke-width="0.24" stroke-linecap="round" stroke-linejoin="round"/>
<path d="M17.3511 65.4346H31.785" stroke="#FF006F" stroke-width="0.24" stroke-linecap="round" stroke-linejoin="round"/>
<path d="M76.6074 65.4346H62.9331" stroke="#FF006F" stroke-width="0.24" stroke-linecap="round" stroke-linejoin="round"/>
<path d="M24.1879 69.9922H21.1494V82.9069H24.1879V69.9922Z" fill="#FF006F"/>
<path d="M21.1494 77.9435L24.1879 74.905V69.9922H21.1494V77.9435Z" fill="white"/>
<path d="M24.1879 69.9922H21.1494V82.9069H24.1879V69.9922Z" stroke="#FF006F" stroke-width="0.24" stroke-linecap="round" stroke-linejoin="round"/>
<path d="M24.1879 74.5513H21.1494V78.3494H24.1879V74.5513Z" stroke="#FF006F" stroke-width="0.24" stroke-linecap="round" stroke-linejoin="round"/>
<path d="M31.0253 69.9922H27.9868V82.9069H31.0253V69.9922Z" fill="#FF006F"/>
<path d="M27.9868 77.9435L31.0253 74.905V69.9922H27.9868V77.9435Z" fill="white"/>
<path d="M31.0253 69.9922H27.9868V82.9069H31.0253V69.9922Z" stroke="#FF006F" stroke-width="0.24" stroke-linecap="round" stroke-linejoin="round"/>
<path d="M31.0253 74.5513H27.9868V78.3494H31.0253V74.5513Z" stroke="#FF006F" stroke-width="0.24" stroke-linecap="round" stroke-linejoin="round"/>
<path d="M65.9716 69.9922H62.9331V82.9069H65.9716V69.9922Z" fill="#FF006F"/>
<path d="M62.9331 73.7914L65.9716 70.7518V69.9922H62.9331V73.7914Z" fill="white"/>
<path d="M65.9716 69.9922H62.9331V82.9069H65.9716V69.9922Z" stroke="#FF006F" stroke-width="0.24" stroke-linecap="round" stroke-linejoin="round"/>
<path d="M65.9716 74.5513H62.9331V78.3494H65.9716V74.5513Z" stroke="#FF006F" stroke-width="0.24" stroke-linecap="round" stroke-linejoin="round"/>
<path d="M72.808 69.9922H69.7695V82.9069H72.808V69.9922Z" fill="#FF006F"/>
<path d="M69.7695 73.7914L72.808 70.7518V69.9922H69.7695V73.7914Z" fill="white"/>
<path d="M72.808 69.9922H69.7695V82.9069H72.808V69.9922Z" stroke="#FF006F" stroke-width="0.24" stroke-linecap="round" stroke-linejoin="round"/>
<path d="M72.808 74.5513H69.7695V78.3494H72.808V74.5513Z" stroke="#FF006F" stroke-width="0.24" stroke-linecap="round" stroke-linejoin="round"/>
<path d="M33.3044 44.9224H21.1494V47.9609H33.3044V44.9224Z" fill="#FF006F"/>
<path d="M28.7467 44.9224H21.1494V47.962H25.7071L28.7467 44.9224Z" fill="white"/>
<path d="M33.3044 44.9224H21.1494V47.9609H33.3044V44.9224Z" stroke="#FF006F" stroke-width="0.24" stroke-linecap="round" stroke-linejoin="round"/>
<path d="M29.5049 44.9224H24.9473V47.9609H29.5049V44.9224Z" stroke="#FF006F" stroke-width="0.24" stroke-linecap="round" stroke-linejoin="round"/>
<path d="M33.3044 51.7603H21.1494V54.7988H33.3044V51.7603Z" fill="#FF006F"/>
<path d="M28.7467 51.7603H21.1494V54.7988H25.7071L28.7467 51.7603Z" fill="white"/>
<path d="M33.3044 51.7603H21.1494V54.7988H33.3044V51.7603Z" stroke="#FF006F" stroke-width="0.24" stroke-linecap="round" stroke-linejoin="round"/>
<path d="M29.5049 51.7603H24.9473V54.7988H29.5049V51.7603Z" stroke="#FF006F" stroke-width="0.24" stroke-linecap="round" stroke-linejoin="round"/>
<path d="M33.3044 58.5967H21.1494V61.6352H33.3044V58.5967Z" fill="#FF006F"/>
<path d="M28.7467 58.5967H21.1494V61.6363H25.7071L28.7467 58.5967Z" fill="white"/>
<path d="M33.3044 58.5967H21.1494V61.6352H33.3044V58.5967Z" stroke="#FF006F" stroke-width="0.24" stroke-linecap="round" stroke-linejoin="round"/>
<path d="M29.5049 58.5967H24.9473V61.6352H29.5049V58.5967Z" stroke="#FF006F" stroke-width="0.24" stroke-linecap="round" stroke-linejoin="round"/>
<path d="M72.8079 44.9224H60.6528V47.9609H72.8079V44.9224Z" fill="#FF006F"/>
<path d="M68.2501 44.9224H60.6528V47.962H65.2117L68.2501 44.9224Z" fill="white"/>
<path d="M72.8079 44.9224H60.6528V47.9609H72.8079V44.9224Z" stroke="#FF006F" stroke-width="0.24" stroke-linecap="round" stroke-linejoin="round"/>
<path d="M69.0098 44.9224H64.4521V47.9609H69.0098V44.9224Z" stroke="#FF006F" stroke-width="0.24" stroke-linecap="round" stroke-linejoin="round"/>
<path d="M72.8079 51.7603H60.6528V54.7988H72.8079V51.7603Z" fill="#FF006F"/>
<path d="M68.2501 51.7603H60.6528V54.7988H65.2117L68.2501 51.7603Z" fill="white"/>
<path d="M72.8079 51.7603H60.6528V54.7988H72.8079V51.7603Z" stroke="#FF006F" stroke-width="0.24" stroke-linecap="round" stroke-linejoin="round"/>
<path d="M69.0098 51.7603H64.4521V54.7988H69.0098V51.7603Z" stroke="#FF006F" stroke-width="0.24" stroke-linecap="round" stroke-linejoin="round"/>
<path d="M72.8079 58.5967H60.6528V61.6352H72.8079V58.5967Z" fill="#FF006F"/>
<path d="M68.2501 58.5967H60.6528V61.6363H65.2117L68.2501 58.5967Z" fill="white"/>
<path d="M72.8079 58.5967H60.6528V61.6352H72.8079V58.5967Z" stroke="#FF006F" stroke-width="0.24" stroke-linecap="round" stroke-linejoin="round"/>
<path d="M69.0098 58.5967H64.4521V61.6352H69.0098V58.5967Z" stroke="#FF006F" stroke-width="0.24" stroke-linecap="round" stroke-linejoin="round"/>
<path d="M69.0098 51.7603H64.4521V54.7988H69.0098V51.7603Z" stroke="#FF006F" stroke-width="0.24" stroke-linecap="round" stroke-linejoin="round"/>
<path d="M69.0098 44.9224H64.4521V47.9609H69.0098V44.9224Z" stroke="#FF006F" stroke-width="0.24" stroke-linecap="round" stroke-linejoin="round"/>
<path d="M69.0098 58.5967H64.4521V61.6352H69.0098V58.5967Z" stroke="#FF006F" stroke-width="0.24" stroke-linecap="round" stroke-linejoin="round"/>
<path d="M44.6997 31.248V66.9536" stroke="#FF006F" stroke-width="0.24" stroke-linecap="round" stroke-linejoin="round"/>
<path d="M49.2573 31.248V66.9536" stroke="#FF006F" stroke-width="0.24" stroke-linecap="round" stroke-linejoin="round"/>
<path d="M41.6611 61.6362H52.2969" stroke="#FF006F" stroke-width="0.24" stroke-linecap="round" stroke-linejoin="round"/>
<path d="M41.6611 47.9619H52.2969" stroke="#FF006F" stroke-width="0.24" stroke-linecap="round" stroke-linejoin="round"/>
<path d="M41.6611 54.7988H52.2969" stroke="#FF006F" stroke-width="0.24" stroke-linecap="round" stroke-linejoin="round"/>
<path d="M30.2646 35.0464H24.9473V38.0849H30.2646V35.0464Z" fill="#FF006F" stroke="#FF006F" stroke-width="0.24" stroke-linecap="round" stroke-linejoin="round"/>
<path d="M69.0097 35.0464H63.6924V38.0849H69.0097V35.0464Z" fill="#FF006F" stroke="#FF006F" stroke-width="0.24" stroke-linecap="round" stroke-linejoin="round"/>
<path d="M46.9784 25.7787C52.3488 25.7787 56.7024 21.4251 56.7024 16.0546C56.7024 10.6842 52.3488 6.33057 46.9784 6.33057C41.6079 6.33057 37.2544 10.6842 37.2544 16.0546C37.2544 21.4251 41.6079 25.7787 46.9784 25.7787Z" fill="white"/>
<path d="M50.7909 14.2863H48.7469V12.2422C48.7469 12.0811 48.6828 11.9266 48.569 11.8127C48.455 11.6987 48.3005 11.6348 48.1394 11.6348H45.8187C45.6576 11.6348 45.5031 11.6987 45.3891 11.8127C45.2752 11.9266 45.2112 12.0811 45.2112 12.2422V14.2863H43.1661C43.0049 14.2866 42.8503 14.3508 42.7364 14.4649C42.6224 14.5789 42.5586 14.7336 42.5586 14.8948V17.21C42.5586 17.3713 42.6225 17.5259 42.7364 17.64C42.8503 17.7542 43.0049 17.8184 43.1661 17.8186H45.2078V19.8627C45.2078 20.0238 45.2718 20.1783 45.3858 20.2923C45.4997 20.4062 45.6543 20.4701 45.8154 20.4701H48.1362C48.2972 20.4701 48.4518 20.4062 48.5656 20.2923C48.6796 20.1783 48.7436 20.0238 48.7436 19.8627V17.8231H50.7876C50.8675 17.8231 50.9466 17.8073 51.0203 17.7767C51.0941 17.7461 51.1611 17.7013 51.2176 17.6448C51.274 17.5882 51.3187 17.5211 51.3491 17.4473C51.3797 17.3734 51.3952 17.2944 51.3951 17.2144V14.8992C51.3958 14.8193 51.3808 14.74 51.3508 14.6658C51.3208 14.5917 51.2764 14.5242 51.2202 14.4673C51.1642 14.4103 51.0973 14.365 51.0237 14.334C50.95 14.3029 50.8708 14.2867 50.7909 14.2863Z" fill="#FF006F" stroke="#FF006F" stroke-width="0.24" stroke-linecap="round" stroke-linejoin="round"/>
<path d="M46.9784 25.7787C52.3488 25.7787 56.7024 21.4251 56.7024 16.0546C56.7024 10.6842 52.3488 6.33057 46.9784 6.33057C41.6079 6.33057 37.2544 10.6842 37.2544 16.0546C37.2544 21.4251 41.6079 25.7787 46.9784 25.7787Z" stroke="#FF006F" stroke-width="0.24" stroke-linecap="round" stroke-linejoin="round"/>
<path d="M89.0521 88.1504H61.7554V79.4407C61.7552 78.4234 61.8393 77.4079 62.0067 76.4043L62.2516 74.937C62.3518 74.3387 62.661 73.7953 63.124 73.4034C63.5871 73.0113 64.1739 72.7961 64.7806 72.7959H81.8771C82.4605 72.7961 83.0265 72.9952 83.4815 73.3605C83.9365 73.7256 84.2533 74.2351 84.3797 74.8046L85.6399 80.4737L87.7601 81.004C88.129 81.0962 88.4565 81.3089 88.6906 81.6086C88.9247 81.9083 89.052 82.2775 89.0521 82.6578V88.1504Z" fill="white" stroke="#FF006F" stroke-width="0.24" stroke-linecap="round" stroke-linejoin="round"/>
<path d="M66.8734 89.0029H61.7292C61.5099 89.0029 61.2995 88.9158 61.1445 88.7607C60.9894 88.6057 60.9023 88.3953 60.9023 88.176V86.4186C60.9023 86.1994 60.9894 85.989 61.1445 85.834C61.2995 85.6788 61.5099 85.5918 61.7292 85.5918H66.8734V89.0029Z" fill="#FF006F" stroke="#FF006F" stroke-width="0.24" stroke-linecap="round" stroke-linejoin="round"/>
<path d="M89.3706 89.0029H83.0864V85.5918H89.3706C89.5124 85.5918 89.6484 85.6481 89.7488 85.7484C89.849 85.8487 89.9053 85.9847 89.9053 86.1265V88.4693C89.9051 88.611 89.8486 88.7467 89.7483 88.8467C89.6481 88.9467 89.5123 89.0029 89.3706 89.0029Z" fill="#FF006F" stroke="#FF006F" stroke-width="0.24" stroke-linecap="round" stroke-linejoin="round"/>
<path d="M66.8733 90.7096C68.2866 90.7096 69.4323 89.564 69.4323 88.1506C69.4323 86.7375 68.2866 85.5918 66.8733 85.5918C65.46 85.5918 64.3145 86.7375 64.3145 88.1506C64.3145 89.564 65.46 90.7096 66.8733 90.7096Z" fill="#FF006F" stroke="#FF006F" stroke-width="0.24" stroke-linecap="round" stroke-linejoin="round"/>
<path d="M83.0809 90.7096C84.494 90.7096 85.6398 89.564 85.6398 88.1506C85.6398 86.7375 84.494 85.5918 83.0809 85.5918C81.6676 85.5918 80.522 86.7375 80.522 88.1506C80.522 89.564 81.6676 90.7096 83.0809 90.7096Z" fill="#FF006F" stroke="#FF006F" stroke-width="0.24" stroke-linecap="round" stroke-linejoin="round"/>
<path d="M84.5034 75.356H77.9634V79.6204H85.4505L84.5034 75.356Z" fill="#FF006F"/>
<path d="M77.9634 75.356V79.6204H78.669L82.9346 75.356H77.9634Z" fill="white"/>
<path d="M84.5034 75.356H77.9634V79.6204H85.4505L84.5034 75.356Z" stroke="#FF006F" stroke-width="0.24" stroke-linecap="round" stroke-linejoin="round"/>
<path d="M78.8154 69.3838C78.363 69.384 77.9292 69.564 77.6093 69.884C77.2894 70.2041 77.1099 70.638 77.1099 71.0905V72.796H80.5221V71.0905C80.5221 70.6378 80.3423 70.2037 80.0222 69.8836C79.7022 69.5635 79.2681 69.3838 78.8154 69.3838Z" fill="white" stroke="#FF006F" stroke-width="0.24" stroke-linecap="round" stroke-linejoin="round"/>
<path d="M70.2856 77.0615V82.1793" stroke="#FF006F" stroke-width="0.24" stroke-linecap="round" stroke-linejoin="round"/>
<path d="M67.7266 79.6206H72.8444" stroke="#FF006F" stroke-width="0.24" stroke-linecap="round" stroke-linejoin="round"/>
<path d="M44.6996 69.9922H41.6611V74.5499H44.6996V69.9922Z" fill="#FF006F"/>
<path d="M44.6996 70.7518V69.9922H41.6611V73.7914L44.6996 70.7518Z" fill="white"/>
<path d="M44.6996 69.9922H41.6611V74.5499H44.6996V69.9922Z" stroke="#FF006F" stroke-width="0.24" stroke-linecap="round" stroke-linejoin="round"/>
<path d="M52.2958 69.9922H49.2573V74.5499H52.2958V69.9922Z" fill="#FF006F"/>
<path d="M52.2969 70.7518V69.9922H49.2573V73.7914L52.2969 70.7518Z" fill="white"/>
<path d="M52.2958 69.9922H49.2573V74.5499H52.2958V69.9922Z" stroke="#FF006F" stroke-width="0.24" stroke-linecap="round" stroke-linejoin="round"/>
<path d="M53.8165 75.3106C51.822 73.8751 49.4379 73.0803 46.9811 73.0317C44.5241 73.0804 42.1402 73.8752 40.1455 75.3106V82.9068H53.8165V75.3106Z" fill="white" stroke="#FF006F" stroke-width="0.24" stroke-linecap="round" stroke-linejoin="round"/>
<path d="M46.9784 77.5894H44.4912C44.345 77.5894 44.2048 77.6475 44.1013 77.7508C43.9981 77.8543 43.9399 77.9944 43.9399 78.1406V82.9067H46.9784V77.5894Z" fill="#FF006F"/>
<path d="M46.9785 78.7293V77.5894H44.5464C44.3853 77.5894 44.2307 77.6534 44.1169 77.7673C44.0028 77.8813 43.939 78.0357 43.939 78.1968V81.7678L46.9785 78.7293Z" fill="white"/>
<path d="M46.9784 77.5894H44.4912C44.345 77.5894 44.2048 77.6475 44.1013 77.7508C43.9981 77.8543 43.9399 77.9944 43.9399 78.1406V82.9067H46.9784V77.5894Z" stroke="#FF006F" stroke-width="0.24" stroke-linecap="round" stroke-linejoin="round"/>
<path d="M49.4669 77.5894H46.9785V82.9067H50.0181V78.1406C50.0181 77.9944 49.9601 77.8543 49.8567 77.7508C49.7533 77.6475 49.6131 77.5894 49.4669 77.5894Z" fill="#FF006F"/>
<path d="M50.0181 78.7297V78.1983C50.0178 78.0371 49.9537 77.8827 49.8395 77.7686C49.7255 77.6548 49.5707 77.5908 49.4096 77.5908H46.9785V81.7693L50.0181 78.7297Z" fill="white"/>
<path d="M49.4669 77.5894H46.9785V82.9067H50.0181V78.1406C50.0181 77.9944 49.9601 77.8543 49.8567 77.7508C49.7533 77.6475 49.6131 77.5894 49.4669 77.5894Z" stroke="#FF006F" stroke-width="0.24" stroke-linecap="round" stroke-linejoin="round"/>
</svg>
